<svg width="208.73px" height="26px" viewBox="0 0 209 28" fill="none" xmlns="http://www.w3.org/2000/svg">
<g clip-path="url(#clip0_112_497)">
<path d="M26.7846 22.3305L26.3131 23.6463C26.0662 24.3341 25.613 24.9288 25.0154 25.3495C24.4178 25.7701 23.705 25.996 22.9743 25.9965H18.6539L17.3451 22.3269L14.0625 13.1795L10.3085 23.6498C10.062 24.3379 9.60892 24.9329 9.01126 25.3536C8.4136 25.7743 7.70056 26.0001 6.96969 26H0L8.33829 2.77945C8.62663 1.97086 9.15814 1.27131 9.85987 0.776821C10.5616 0.282329 11.3992 0.0171264 12.2576 0.0176093H16.3107C17.0321 0.0190984 17.7357 0.242331 18.326 0.657058C18.9163 1.07178 19.3648 1.65796 19.6108 2.33615L22.0736 9.16862L26.7846 22.3305Z" fill="url(#paint0_linear_112_497)"/>
<g style="mix-blend-mode:overlay">
<path d="M14.9104 0H12.2612C11.402 0.000110024 10.5638 0.26544 9.86104 0.759753C9.15829 1.25407 8.62527 1.95326 8.33478 2.76184L0 25.9824H2.66333L11.0122 2.76184C11.3006 1.95748 11.8292 1.26117 12.5265 0.76718C13.2237 0.273189 14.0559 0.0053771 14.9104 0Z" fill="url(#paint1_linear_112_497)"/>
</g>
<path style="mix-blend-mode:multiply" d="M26.7846 22.334L26.3131 23.6498C26.0661 24.3376 25.613 24.9323 25.0154 25.353C24.4178 25.7736 23.705 25.9995 22.9743 26H18.6538L17.345 22.3269L14.0625 13.1794L16.2896 6.96265C16.4744 6.44877 16.8133 6.00445 17.2601 5.69037C17.7069 5.37628 18.2397 5.20773 18.7858 5.20773C19.3319 5.20773 19.8647 5.37628 20.3115 5.69037C20.7582 6.00445 21.0971 6.44877 21.282 6.96265L22.0666 9.15453L26.7846 22.334Z" fill="url(#paint2_linear_112_497)"/>
<path d="M46.7261 26.0035H37.276L32.6776 13.1759L29.3916 22.3234L28.9201 23.6393C28.6732 24.327 28.22 24.9218 27.6224 25.3424C27.0249 25.763 26.3121 25.989 25.5813 25.9895H18.6257L19.9415 22.3164L24.6666 9.144L26.9605 2.75482C27.2503 1.94652 27.7827 1.24744 28.4848 0.753105C29.187 0.258773 30.0246 -0.00669413 30.8833 -0.00701904H34.9364C35.6578 -0.00552996 36.3613 0.217702 36.9517 0.632429C37.542 1.04716 37.9905 1.63333 38.2365 2.31152L46.7261 26.0035Z" fill="url(#paint3_linear_112_497)"/>
<path d="M39.9007 6.96267C39.7165 6.44758 39.3777 6.00201 38.9305 5.68698C38.4833 5.37194 37.9497 5.20284 37.4027 5.20284C36.8557 5.20284 36.322 5.37194 35.8749 5.68698C35.4277 6.00201 35.0888 6.44758 34.9047 6.96267L32.6776 13.1759L29.3916 22.3234L28.9201 23.6393C28.6732 24.327 28.22 24.9218 27.6224 25.3424C27.0249 25.763 26.3121 25.989 25.5813 25.9895H18.6257L19.9415 22.3164L24.6666 9.144L26.9605 2.75482C27.2503 1.94652 27.7827 1.24744 28.4848 0.753105C29.187 0.258773 30.0246 -0.00669413 30.8833 -0.00701904H34.9364C35.6578 -0.00552996 36.3613 0.217702 36.9516 0.632429C37.542 1.04716 37.9905 1.63333 38.2365 2.31152L39.9007 6.96267Z" fill="url(#paint4_linear_112_497)"/>
<path style="mix-blend-mode:overlay" d="M27.0062 9.15453L29.3072 2.76184C29.597 1.95354 30.1294 1.25446 30.8315 0.760124C31.5337 0.265792 32.3713 0.000324908 33.23 0H30.8904C30.0317 0.000324908 29.194 0.265792 28.4919 0.760124C27.7897 1.25446 27.2574 1.95354 26.9675 2.76184L24.6736 9.15101L19.9486 22.3234L18.6327 25.9965H20.9724L22.2706 22.3269L27.0062 9.15453Z" fill="url(#paint5_linear_112_497)"/>
<path style="mix-blend-mode:multiply" d="M46.7261 26H37.276L32.6776 13.1759L34.9047 6.96265C35.0895 6.44877 35.4285 6.00445 35.8752 5.69037C36.322 5.37628 36.8548 5.20773 37.4009 5.20773C37.947 5.20773 38.4798 5.37628 38.9266 5.69037C39.3733 6.00445 39.7123 6.44877 39.8971 6.96265L46.7261 26Z" fill="url(#paint6_linear_112_497)"/>
</g>
<path d="M74.9992 5.29204V21.5H71.7483V10.9579L67.4061 21.5H64.9447L60.5792 10.9579V21.5H57.3284V5.29204H61.0204L66.1754 17.3435L71.3304 5.29204H74.9992ZM89.4682 14.7893C89.4682 15.2537 89.4372 15.6716 89.3753 16.0432H79.971C80.0484 16.972 80.3735 17.6996 80.9463 18.2259C81.519 18.7522 82.2234 19.0154 83.0593 19.0154C84.2668 19.0154 85.126 18.4968 85.6368 17.4596H89.1431C88.7716 18.6981 88.0595 19.7198 87.0068 20.5247C85.9542 21.3142 84.6615 21.709 83.129 21.709C81.8906 21.709 80.776 21.4381 79.7852 20.8963C78.81 20.339 78.0437 19.5572 77.4864 18.551C76.9446 17.5448 76.6737 16.3837 76.6737 15.0679C76.6737 13.7366 76.9446 12.5678 77.4864 11.5616C78.0282 10.5554 78.7867 9.78135 79.762 9.23954C80.7373 8.69773 81.8596 8.42682 83.129 8.42682C84.3519 8.42682 85.4433 8.68999 86.4031 9.21632C87.3783 9.74265 88.1291 10.4935 88.6555 11.4687C89.1973 12.4285 89.4682 13.5353 89.4682 14.7893ZM86.1012 13.8604C86.0857 13.0245 85.7839 12.3588 85.1956 11.8635C84.6074 11.3526 83.8875 11.0972 83.0361 11.0972C82.2311 11.0972 81.55 11.3449 80.9927 11.8402C80.4509 12.3201 80.1181 12.9935 79.9942 13.8604H86.1012ZM90.3015 15.0215C90.3015 13.7211 90.5569 12.5678 91.0677 11.5616C91.5941 10.5554 92.3062 9.78135 93.204 9.23954C94.1019 8.69773 95.1004 8.42682 96.1995 8.42682C97.0354 8.42682 97.8327 8.61258 98.5912 8.98411C99.3497 9.34016 99.9535 9.82005 100.402 10.4238V4.31678H103.7V21.5H100.402V19.5959C99.9999 20.2306 99.4349 20.7415 98.7073 21.1285C97.9797 21.5155 97.136 21.709 96.1763 21.709C95.0926 21.709 94.1019 21.4303 93.204 20.873C92.3062 20.3158 91.5941 19.534 91.0677 18.5278C90.5569 17.5061 90.3015 16.3373 90.3015 15.0215ZM100.426 15.0679C100.426 14.2784 100.271 13.605 99.9612 13.0477C99.6516 12.4749 99.2336 12.0415 98.7073 11.7474C98.181 11.4378 97.6159 11.2829 97.0122 11.2829C96.4085 11.2829 95.8512 11.43 95.3403 11.7241C94.8295 12.0183 94.4115 12.4517 94.0864 13.0245C93.7768 13.5818 93.622 14.2474 93.622 15.0215C93.622 15.7955 93.7768 16.4766 94.0864 17.0649C94.4115 17.6376 94.8295 18.0788 95.3403 18.3884C95.8667 18.6981 96.4239 18.8529 97.0122 18.8529C97.6159 18.8529 98.181 18.7058 98.7073 18.4117C99.2336 18.1021 99.6516 17.6686 99.9612 17.1113C100.271 16.5385 100.426 15.8574 100.426 15.0679ZM107.82 7.10325C107.247 7.10325 106.767 6.92522 106.38 6.56917C106.009 6.19764 105.823 5.74097 105.823 5.19916C105.823 4.65735 106.009 4.20842 106.38 3.85237C106.767 3.48084 107.247 3.29507 107.82 3.29507C108.393 3.29507 108.865 3.48084 109.236 3.85237C109.623 4.20842 109.817 4.65735 109.817 5.19916C109.817 5.74097 109.623 6.19764 109.236 6.56917C108.865 6.92522 108.393 7.10325 107.82 7.10325ZM109.422 8.63581V21.5H106.171V8.63581H109.422ZM111.094 15.0215C111.094 13.7211 111.35 12.5678 111.861 11.5616C112.387 10.5554 113.091 9.78135 113.974 9.23954C114.871 8.69773 115.87 8.42682 116.969 8.42682C117.929 8.42682 118.765 8.62032 119.477 9.00733C120.204 9.39434 120.785 9.88198 121.218 10.4702V8.63581H124.493V21.5H121.218V19.6191C120.8 20.2229 120.22 20.726 119.477 21.1285C118.749 21.5155 117.906 21.709 116.946 21.709C115.862 21.709 114.871 21.4303 113.974 20.873C113.091 20.3158 112.387 19.534 111.861 18.5278C111.35 17.5061 111.094 16.3373 111.094 15.0215ZM121.218 15.0679C121.218 14.2784 121.064 13.605 120.754 13.0477C120.444 12.4749 120.026 12.0415 119.5 11.7474C118.974 11.4378 118.409 11.2829 117.805 11.2829C117.201 11.2829 116.644 11.43 116.133 11.7241C115.622 12.0183 115.204 12.4517 114.879 13.0245C114.57 13.5818 114.415 14.2474 114.415 15.0215C114.415 15.7955 114.57 16.4766 114.879 17.0649C115.204 17.6376 115.622 18.0788 116.133 18.3884C116.659 18.6981 117.217 18.8529 117.805 18.8529C118.409 18.8529 118.974 18.7058 119.5 18.4117C120.026 18.1021 120.444 17.6686 120.754 17.1113C121.064 16.5385 121.218 15.8574 121.218 15.0679ZM131.887 21.709C130.834 21.709 129.89 21.5232 129.054 21.1517C128.218 20.7647 127.552 20.2461 127.057 19.5959C126.577 18.9457 126.314 18.2259 126.267 17.4364H129.541C129.603 17.9318 129.843 18.342 130.261 18.6671C130.695 18.9922 131.229 19.1547 131.863 19.1547C132.483 19.1547 132.963 19.0309 133.303 18.7832C133.659 18.5355 133.837 18.2182 133.837 17.8312C133.837 17.4132 133.621 17.1036 133.187 16.9023C132.769 16.6856 132.096 16.4534 131.167 16.2057C130.207 15.9735 129.418 15.7336 128.798 15.4859C128.195 15.2382 127.668 14.8589 127.219 14.3481C126.786 13.8372 126.569 13.1483 126.569 12.2814C126.569 11.5693 126.77 10.9192 127.173 10.3309C127.591 9.74265 128.179 9.27824 128.938 8.93767C129.712 8.5971 130.617 8.42682 131.654 8.42682C133.187 8.42682 134.41 8.81383 135.323 9.58785C136.237 10.3464 136.74 11.3758 136.833 12.6762H133.721C133.675 12.1653 133.458 11.7628 133.071 11.4687C132.699 11.1591 132.196 11.0043 131.562 11.0043C130.973 11.0043 130.517 11.1127 130.192 11.3294C129.882 11.5461 129.727 11.848 129.727 12.235C129.727 12.6684 129.944 13.0013 130.377 13.2335C130.811 13.4502 131.484 13.6747 132.398 13.9069C133.326 14.1391 134.093 14.379 134.696 14.6267C135.3 14.8744 135.819 15.2614 136.252 15.7877C136.701 16.2986 136.933 16.9797 136.949 17.8312C136.949 18.5742 136.74 19.2399 136.322 19.8281C135.919 20.4164 135.331 20.8808 134.557 21.2214C133.799 21.5464 132.908 21.709 131.887 21.709ZM142.165 10.4935C142.583 9.9052 143.155 9.41756 143.883 9.03056C144.626 8.62806 145.47 8.42682 146.414 8.42682C147.513 8.42682 148.504 8.69773 149.386 9.23954C150.284 9.78135 150.988 10.5554 151.499 11.5616C152.026 12.5523 152.289 13.7056 152.289 15.0215C152.289 16.3373 152.026 17.5061 151.499 18.5278C150.988 19.534 150.284 20.3158 149.386 20.873C148.504 21.4303 147.513 21.709 146.414 21.709C145.47 21.709 144.634 21.5155 143.906 21.1285C143.194 20.7415 142.613 20.2538 142.165 19.6656V27.6302H138.914V8.63581H142.165V10.4935ZM148.968 15.0215C148.968 14.2474 148.806 13.5818 148.481 13.0245C148.171 12.4517 147.753 12.0183 147.227 11.7241C146.716 11.43 146.159 11.2829 145.555 11.2829C144.967 11.2829 144.409 11.4378 143.883 11.7474C143.372 12.0415 142.954 12.4749 142.629 13.0477C142.319 13.6205 142.165 14.2939 142.165 15.0679C142.165 15.8419 142.319 16.5153 142.629 17.0881C142.954 17.6609 143.372 18.1021 143.883 18.4117C144.409 18.7058 144.967 18.8529 145.555 18.8529C146.159 18.8529 146.716 18.6981 147.227 18.3884C147.753 18.0788 148.171 17.6376 148.481 17.0649C148.806 16.4921 148.968 15.811 148.968 15.0215ZM165.906 14.7893C165.906 15.2537 165.875 15.6716 165.813 16.0432H156.409C156.486 16.972 156.811 17.6996 157.384 18.2259C157.957 18.7522 158.661 19.0154 159.497 19.0154C160.705 19.0154 161.564 18.4968 162.075 17.4596H165.581C165.209 18.6981 164.497 19.7198 163.445 20.5247C162.392 21.3142 161.099 21.709 159.567 21.709C158.328 21.709 157.214 21.4381 156.223 20.8963C155.248 20.339 154.481 19.5572 153.924 18.551C153.382 17.5448 153.111 16.3837 153.111 15.0679C153.111 13.7366 153.382 12.5678 153.924 11.5616C154.466 10.5554 155.225 9.78135 156.2 9.23954C157.175 8.69773 158.297 8.42682 159.567 8.42682C160.79 8.42682 161.881 8.68999 162.841 9.21632C163.816 9.74265 164.567 10.4935 165.093 11.4687C165.635 12.4285 165.906 13.5353 165.906 14.7893ZM162.539 13.8604C162.524 13.0245 162.222 12.3588 161.633 11.8635C161.045 11.3526 160.325 11.0972 159.474 11.0972C158.669 11.0972 157.988 11.3449 157.43 11.8402C156.889 12.3201 156.556 12.9935 156.432 13.8604H162.539ZM179.534 14.7893C179.534 15.2537 179.503 15.6716 179.441 16.0432H170.037C170.114 16.972 170.439 17.6996 171.012 18.2259C171.585 18.7522 172.289 19.0154 173.125 19.0154C174.332 19.0154 175.192 18.4968 175.702 17.4596H179.209C178.837 18.6981 178.125 19.7198 177.072 20.5247C176.02 21.3142 174.727 21.709 173.195 21.709C171.956 21.709 170.842 21.4381 169.851 20.8963C168.876 20.339 168.109 19.5572 167.552 18.551C167.01 17.5448 166.739 16.3837 166.739 15.0679C166.739 13.7366 167.01 12.5678 167.552 11.5616C168.094 10.5554 168.852 9.78135 169.828 9.23954C170.803 8.69773 171.925 8.42682 173.195 8.42682C174.418 8.42682 175.509 8.68999 176.469 9.21632C177.444 9.74265 178.195 10.4935 178.721 11.4687C179.263 12.4285 179.534 13.5353 179.534 14.7893ZM176.167 13.8604C176.151 13.0245 175.849 12.3588 175.261 11.8635C174.673 11.3526 173.953 11.0972 173.102 11.0972C172.297 11.0972 171.616 11.3449 171.058 11.8402C170.516 12.3201 170.184 12.9935 170.06 13.8604H176.167ZM180.367 15.0679C180.367 13.7366 180.638 12.5756 181.18 11.5848C181.722 10.5786 182.472 9.80457 183.432 9.26276C184.392 8.70547 185.491 8.42682 186.729 8.42682C188.324 8.42682 189.64 8.82931 190.677 9.63429C191.73 10.4238 192.434 11.5384 192.79 12.9781H189.284C189.098 12.4208 188.781 11.9873 188.332 11.6777C187.898 11.3526 187.356 11.1901 186.706 11.1901C185.777 11.1901 185.042 11.5306 184.5 12.2118C183.958 12.8774 183.688 13.8295 183.688 15.0679C183.688 16.2909 183.958 17.2429 184.5 17.924C185.042 18.5897 185.777 18.9225 186.706 18.9225C188.022 18.9225 188.881 18.3343 189.284 17.1578H192.79C192.434 18.551 191.73 19.6578 190.677 20.4783C189.624 21.2988 188.308 21.709 186.729 21.709C185.491 21.709 184.392 21.4381 183.432 20.8963C182.472 20.339 181.722 19.565 181.18 18.5742C180.638 17.568 180.367 16.3992 180.367 15.0679ZM201.713 8.45004C202.688 8.45004 203.555 8.66677 204.313 9.10022C205.072 9.51819 205.66 10.1451 206.078 10.9811C206.512 11.8015 206.728 12.7923 206.728 13.9533V21.5H203.478V14.3945C203.478 13.3728 203.222 12.591 202.711 12.0492C202.2 11.4919 201.504 11.2133 200.621 11.2133C199.724 11.2133 199.011 11.4919 198.485 12.0492C197.974 12.591 197.719 13.3728 197.719 14.3945V21.5H194.468V4.31678H197.719V10.238C198.137 9.68073 198.694 9.24728 199.391 8.93767C200.087 8.61258 200.861 8.45004 201.713 8.45004Z" fill="#13142F"/>
<defs>
<linearGradient id="paint0_linear_112_497" x1="22.2706" y1="28.2236" x2="5.2387" y2="8.75698" gradientUnits="userSpaceOnUse">
<stop stop-color="#0740A5"/>
<stop offset="0.49" stop-color="#00ABE9"/>
<stop offset="1" stop-color="#2AFFB4"/>
</linearGradient>
<linearGradient id="paint1_linear_112_497" x1="0" y1="13" x2="14.9104" y2="13" gradientUnits="userSpaceOnUse">
<stop stop-color="white"/>
<stop offset="1" stop-color="white" stop-opacity="0"/>
</linearGradient>
<linearGradient id="paint2_linear_112_497" x1="13.4855" y1="8.33478" x2="18.1613" y2="14.1258" gradientUnits="userSpaceOnUse">
<stop stop-color="#0740A5"/>
<stop offset="1" stop-color="white"/>
</linearGradient>
<linearGradient id="paint3_linear_112_497" x1="42.096" y1="27.5868" x2="9.96019" y2="-4.54558" gradientUnits="userSpaceOnUse">
<stop stop-color="#0740A5"/>
<stop offset="0.49" stop-color="#00ABE9"/>
<stop offset="1" stop-color="#71FF6A"/>
</linearGradient>
<linearGradient id="paint4_linear_112_497" x1="35.9532" y1="0.0246459" x2="21.3559" y2="27.7416" gradientUnits="userSpaceOnUse">
<stop stop-color="#0740A5"/>
<stop offset="0.49" stop-color="#00ABE9"/>
<stop offset="1" stop-color="#2AFFB4"/>
</linearGradient>
<linearGradient id="paint5_linear_112_497" x1="29.7751" y1="0.675508" x2="22.9215" y2="22.6049" gradientUnits="userSpaceOnUse">
<stop stop-color="white"/>
<stop offset="1" stop-color="white" stop-opacity="0"/>
</linearGradient>
<linearGradient id="paint6_linear_112_497" x1="32.7726" y1="7.6839" x2="37.0719" y2="14.1329" gradientUnits="userSpaceOnUse">
<stop stop-color="#0740A5"/>
<stop offset="1" stop-color="white"/>
</linearGradient>
<clipPath id="clip0_112_497">
<rect width="46.7261" height="26" fill="white"/>
</clipPath>
</defs>
</svg>
