<svg width="44" height="44" viewBox="0 0 44 44" fill="none" xmlns="http://www.w3.org/2000/svg">
<g clip-path="url(#clip0_4_713)">
<path d="M34.8334 30.9833C37.0612 30.531 39.0414 29.267 40.3896 27.4367C41.7379 25.6064 42.358 23.3405 42.1295 21.0787C41.9011 18.817 40.8403 16.7208 39.1533 15.1972C37.4663 13.6735 35.2733 12.831 33 12.8333H30.69C30.0826 10.4817 28.9008 8.31781 27.2505 6.5358C25.6003 4.75379 23.5333 3.40949 21.2352 2.6236C18.9371 1.83771 16.4798 1.63483 14.084 2.03317C11.6881 2.43151 9.42864 3.4186 7.50847 4.90582C5.5883 6.39304 4.06752 8.33384 3.08267 10.554C2.09782 12.7741 1.67972 15.204 1.86592 17.6256C2.05212 20.0473 2.83678 22.3847 4.14946 24.4282C5.46215 26.4716 7.26175 28.1571 9.38671 29.3333" stroke="#CD3838" stroke-width="3.66667" stroke-linecap="round" stroke-linejoin="round"/>
<path d="M23.8333 20.1667L16.5 31.1667H27.5L20.1667 42.1667" stroke="#CD3838" stroke-width="3.66667" stroke-linecap="round" stroke-linejoin="round"/>
</g>
<defs>
<clipPath id="clip0_4_713">
<rect width="44" height="44" fill="white"/>
</clipPath>
</defs>
</svg>
