<svg width="47" height="26" viewBox="0 0 47 26" fill="none" xmlns="http://www.w3.org/2000/svg">
<g clip-path="url(#clip0_112_1261)">
<path d="M26.7846 22.3304L26.3131 23.6463C26.0662 24.334 25.613 24.9288 25.0154 25.3494C24.4178 25.77 23.705 25.996 22.9743 25.9965H18.6539L17.3451 22.3269L14.0625 13.1794L10.3085 23.6498C10.062 24.3378 9.60892 24.9329 9.01126 25.3536C8.4136 25.7743 7.70056 26 6.96969 26H0L8.33829 2.77942C8.62663 1.97083 9.15814 1.27128 9.85987 0.77679C10.5616 0.282299 11.3992 0.0170959 12.2576 0.0175788H16.3107C17.0321 0.0190679 17.7357 0.2423 18.326 0.657027C18.9163 1.07175 19.3648 1.65793 19.6108 2.33612L22.0736 9.16859L26.7846 22.3304Z" fill="url(#paint0_linear_112_1261)"/>
<g style="mix-blend-mode:overlay">
<path d="M14.9104 0H12.2612C11.402 0.000110024 10.5638 0.26544 9.86104 0.759753C9.15829 1.25407 8.62527 1.95326 8.33478 2.76184L0 25.9824H2.66333L11.0122 2.76184C11.3006 1.95748 11.8292 1.26117 12.5265 0.76718C13.2237 0.273189 14.0559 0.0053771 14.9104 0Z" fill="url(#paint1_linear_112_1261)"/>
</g>
<path style="mix-blend-mode:multiply" d="M26.7846 22.334L26.3131 23.6498C26.0661 24.3376 25.613 24.9324 25.0154 25.353C24.4178 25.7736 23.705 25.9996 22.9743 26H18.6538L17.345 22.327L14.0625 13.1795L16.2896 6.96268C16.4744 6.4488 16.8133 6.00448 17.2601 5.6904C17.7069 5.37631 18.2397 5.20776 18.7858 5.20776C19.3319 5.20776 19.8647 5.37631 20.3115 5.6904C20.7582 6.00448 21.0971 6.4488 21.282 6.96268L22.0666 9.15457L26.7846 22.334Z" fill="url(#paint2_linear_112_1261)"/>
<path d="M46.7261 26.0035H37.276L32.6776 13.1759L29.3916 22.3234L28.9201 23.6392C28.6732 24.327 28.22 24.9217 27.6224 25.3424C27.0249 25.763 26.3121 25.9889 25.5813 25.9894H18.6257L19.9415 22.3163L24.6666 9.14394L26.9605 2.75476C27.2503 1.94646 27.7827 1.24738 28.4848 0.753044C29.187 0.258712 30.0246 -0.00675517 30.8833 -0.00708008H34.9364C35.6578 -0.00559099 36.3613 0.217641 36.9517 0.632368C37.542 1.0471 37.9905 1.63327 38.2365 2.31146L46.7261 26.0035Z" fill="url(#paint3_linear_112_1261)"/>
<path d="M39.9007 6.96261C39.7165 6.44752 39.3777 6.00195 38.9305 5.68692C38.4833 5.37188 37.9497 5.20278 37.4027 5.20278C36.8557 5.20278 36.322 5.37188 35.8749 5.68692C35.4277 6.00195 35.0888 6.44752 34.9047 6.96261L32.6776 13.1759L29.3916 22.3234L28.9201 23.6392C28.6732 24.327 28.22 24.9217 27.6224 25.3424C27.0249 25.763 26.3121 25.9889 25.5813 25.9894H18.6257L19.9415 22.3163L24.6666 9.14394L26.9605 2.75476C27.2503 1.94646 27.7827 1.24738 28.4848 0.753044C29.187 0.258712 30.0246 -0.00675517 30.8833 -0.00708008H34.9364C35.6578 -0.00559099 36.3613 0.217641 36.9516 0.632368C37.542 1.0471 37.9905 1.63327 38.2365 2.31146L39.9007 6.96261Z" fill="url(#paint4_linear_112_1261)"/>
<path style="mix-blend-mode:overlay" d="M27.0062 9.15453L29.3072 2.76184C29.597 1.95354 30.1294 1.25446 30.8315 0.760124C31.5337 0.265792 32.3713 0.000324908 33.23 0H30.8904C30.0317 0.000324908 29.194 0.265792 28.4919 0.760124C27.7897 1.25446 27.2574 1.95354 26.9675 2.76184L24.6736 9.15101L19.9486 22.3234L18.6327 25.9965H20.9724L22.2706 22.3269L27.0062 9.15453Z" fill="url(#paint5_linear_112_1261)"/>
<path style="mix-blend-mode:multiply" d="M46.7261 26H37.276L32.6776 13.1759L34.9047 6.96268C35.0895 6.4488 35.4285 6.00448 35.8752 5.6904C36.322 5.37631 36.8548 5.20776 37.4009 5.20776C37.947 5.20776 38.4798 5.37631 38.9266 5.6904C39.3733 6.00448 39.7123 6.4488 39.8971 6.96268L46.7261 26Z" fill="url(#paint6_linear_112_1261)"/>
</g>
<defs>
<linearGradient id="paint0_linear_112_1261" x1="22.2706" y1="28.2235" x2="5.2387" y2="8.75695" gradientUnits="userSpaceOnUse">
<stop stop-color="#0740A5"/>
<stop offset="0.49" stop-color="#00ABE9"/>
<stop offset="1" stop-color="#2AFFB4"/>
</linearGradient>
<linearGradient id="paint1_linear_112_1261" x1="0" y1="13" x2="14.9104" y2="13" gradientUnits="userSpaceOnUse">
<stop stop-color="white"/>
<stop offset="1" stop-color="white" stop-opacity="0"/>
</linearGradient>
<linearGradient id="paint2_linear_112_1261" x1="13.4855" y1="8.33481" x2="18.1613" y2="14.1259" gradientUnits="userSpaceOnUse">
<stop stop-color="#0740A5"/>
<stop offset="1" stop-color="white"/>
</linearGradient>
<linearGradient id="paint3_linear_112_1261" x1="42.096" y1="27.5867" x2="9.96019" y2="-4.54565" gradientUnits="userSpaceOnUse">
<stop stop-color="#0740A5"/>
<stop offset="0.49" stop-color="#00ABE9"/>
<stop offset="1" stop-color="#71FF6A"/>
</linearGradient>
<linearGradient id="paint4_linear_112_1261" x1="35.9532" y1="0.0245848" x2="21.3559" y2="27.7415" gradientUnits="userSpaceOnUse">
<stop stop-color="#0740A5"/>
<stop offset="0.49" stop-color="#00ABE9"/>
<stop offset="1" stop-color="#2AFFB4"/>
</linearGradient>
<linearGradient id="paint5_linear_112_1261" x1="29.7751" y1="0.675508" x2="22.9215" y2="22.6049" gradientUnits="userSpaceOnUse">
<stop stop-color="white"/>
<stop offset="1" stop-color="white" stop-opacity="0"/>
</linearGradient>
<linearGradient id="paint6_linear_112_1261" x1="32.7726" y1="7.68393" x2="37.0719" y2="14.1329" gradientUnits="userSpaceOnUse">
<stop stop-color="#0740A5"/>
<stop offset="1" stop-color="white"/>
</linearGradient>
<clipPath id="clip0_112_1261">
<rect width="46.7261" height="26" fill="white"/>
</clipPath>
</defs>
</svg>
