<svg width="592" height="78" viewBox="0 0 592 78" fill="none" xmlns="http://www.w3.org/2000/svg">
<g clip-path="url(#clip0_102_425)">
<path d="M76.13 63.4699L74.79 67.2099C74.0881 69.1647 72.7999 70.8553 71.1015 72.0508C69.403 73.2464 67.377 73.8886 65.3 73.8899H53.02L49.3 63.4599L39.97 37.4599L29.3 67.2199C28.5993 69.1756 27.3115 70.8669 25.6128 72.0627C23.914 73.2584 21.8874 73.9001 19.81 73.8999H0L23.7 7.89993C24.5195 5.60166 26.0302 3.61334 28.0248 2.20784C30.0193 0.802345 32.4 0.0485562 34.84 0.0499286H46.36C48.4105 0.0541611 50.4102 0.688656 52.088 1.86744C53.7659 3.04622 55.0408 4.7123 55.74 6.63993L62.74 26.0599L76.13 63.4699Z" fill="url(#paint0_linear_102_425)"/>
<g style="mix-blend-mode:overlay">
<path d="M42.38 0H34.85C32.4079 0.000312721 30.0255 0.754462 28.0281 2.15945C26.0307 3.56444 24.5157 5.55177 23.69 7.85L0 73.85H7.57L31.3 7.85C32.1198 5.56376 33.6223 3.58463 35.6041 2.18056C37.5859 0.776488 39.9513 0.0152834 42.38 0Z" fill="url(#paint1_linear_102_425)"/>
</g>
<path style="mix-blend-mode:multiply" d="M76.13 63.48L74.79 67.22C74.088 69.1748 72.7999 70.8654 71.1015 72.0609C69.403 73.2565 67.377 73.8987 65.3 73.9H53.02L49.3 63.46L39.97 37.46L46.3 19.79C46.8253 18.3294 47.7887 17.0665 49.0585 16.1738C50.3283 15.2811 51.8427 14.802 53.395 14.802C54.9472 14.802 56.4616 15.2811 57.7314 16.1738C59.0013 17.0665 59.9646 18.3294 60.49 19.79L62.72 26.02L76.13 63.48Z" fill="url(#paint2_linear_102_425)"/>
<path d="M132.81 73.91H105.95L92.8799 37.45L83.5399 63.45L82.1999 67.19C81.498 69.1448 80.2099 70.8354 78.5114 72.0309C76.813 73.2264 74.787 73.8687 72.7099 73.87H52.9399L56.6799 63.43L70.1099 25.99L76.6299 7.82998C77.4538 5.53254 78.967 3.54553 80.9627 2.14049C82.9584 0.735442 85.3392 -0.019096 87.7799 -0.0200195H99.2999C101.35 -0.0157871 103.35 0.618708 105.028 1.79749C106.706 2.97627 107.981 4.64235 108.68 6.56998L132.81 73.91Z" fill="url(#paint3_linear_102_425)"/>
<path d="M113.41 19.79C112.887 18.3259 111.923 17.0595 110.652 16.1641C109.381 15.2686 107.865 14.788 106.31 14.788C104.755 14.788 103.238 15.2686 101.967 16.1641C100.696 17.0595 99.7333 18.3259 99.2099 19.79L92.8799 37.45L83.5399 63.45L82.1999 67.19C81.498 69.1448 80.2099 70.8354 78.5114 72.0309C76.813 73.2264 74.787 73.8687 72.7099 73.87H52.9399L56.6799 63.43L70.1099 25.99L76.6299 7.82998C77.4538 5.53254 78.967 3.54553 80.9627 2.14049C82.9584 0.735442 85.3392 -0.019096 87.7799 -0.0200195H99.2999C101.35 -0.0157871 103.35 0.618708 105.028 1.79749C106.706 2.97627 107.981 4.64235 108.68 6.56998L113.41 19.79Z" fill="url(#paint4_linear_102_425)"/>
<path style="mix-blend-mode:overlay" d="M76.76 26.02L83.3 7.85C84.1238 5.55256 85.637 3.56555 87.6327 2.16051C89.6284 0.755462 92.0093 0.000923489 94.45 0H87.8C85.3593 0.000923489 82.9784 0.755462 80.9827 2.16051C78.987 3.56555 77.4738 5.55256 76.65 7.85L70.13 26.01L56.7 63.45L52.96 73.89H59.61L63.3 63.46L76.76 26.02Z" fill="url(#paint5_linear_102_425)"/>
<path style="mix-blend-mode:multiply" d="M132.81 73.9H105.95L92.88 37.45L99.21 19.79C99.7354 18.3294 100.699 17.0665 101.969 16.1738C103.238 15.2811 104.753 14.802 106.305 14.802C107.857 14.802 109.372 15.2811 110.641 16.1738C111.911 17.0665 112.875 18.3294 113.4 19.79L132.81 73.9Z" fill="url(#paint6_linear_102_425)"/>
</g>
<path d="M212.78 13.932V60H203.54V30.036L191.198 60H184.202L171.794 30.036V60H162.554V13.932H173.048L187.7 48.186L202.352 13.932H212.78ZM253.905 40.926C253.905 42.246 253.817 43.434 253.641 44.49H226.911C227.131 47.13 228.055 49.198 229.683 50.694C231.311 52.19 233.313 52.938 235.689 52.938C239.121 52.938 241.563 51.464 243.015 48.516H252.981C251.925 52.036 249.901 54.94 246.909 57.228C243.917 59.472 240.243 60.594 235.887 60.594C232.367 60.594 229.199 59.824 226.383 58.284C223.611 56.7 221.433 54.478 219.849 51.618C218.309 48.758 217.539 45.458 217.539 41.718C217.539 37.934 218.309 34.612 219.849 31.752C221.389 28.892 223.545 26.692 226.317 25.152C229.089 23.612 232.279 22.842 235.887 22.842C239.363 22.842 242.465 23.59 245.193 25.086C247.965 26.582 250.099 28.716 251.595 31.488C253.135 34.216 253.905 37.362 253.905 40.926ZM244.335 38.286C244.291 35.91 243.433 34.018 241.761 32.61C240.089 31.158 238.043 30.432 235.623 30.432C233.335 30.432 231.399 31.136 229.815 32.544C228.275 33.908 227.329 35.822 226.977 38.286H244.335ZM256.274 41.586C256.274 37.89 257 34.612 258.452 31.752C259.948 28.892 261.972 26.692 264.524 25.152C267.076 23.612 269.914 22.842 273.038 22.842C275.414 22.842 277.68 23.37 279.836 24.426C281.992 25.438 283.708 26.802 284.984 28.518V11.16H294.356V60H284.984V54.588C283.84 56.392 282.234 57.844 280.166 58.944C278.098 60.044 275.7 60.594 272.972 60.594C269.892 60.594 267.076 59.802 264.524 58.218C261.972 56.634 259.948 54.412 258.452 51.552C257 48.648 256.274 45.326 256.274 41.586ZM285.05 41.718C285.05 39.474 284.61 37.56 283.73 35.976C282.85 34.348 281.662 33.116 280.166 32.28C278.67 31.4 277.064 30.96 275.348 30.96C273.632 30.96 272.048 31.378 270.596 32.214C269.144 33.05 267.956 34.282 267.032 35.91C266.152 37.494 265.712 39.386 265.712 41.586C265.712 43.786 266.152 45.722 267.032 47.394C267.956 49.022 269.144 50.276 270.596 51.156C272.092 52.036 273.676 52.476 275.348 52.476C277.064 52.476 278.67 52.058 280.166 51.222C281.662 50.342 282.85 49.11 283.73 47.526C284.61 45.898 285.05 43.962 285.05 41.718ZM306.066 19.08C304.438 19.08 303.074 18.574 301.974 17.562C300.918 16.506 300.39 15.208 300.39 13.668C300.39 12.128 300.918 10.852 301.974 9.84C303.074 8.784 304.438 8.256 306.066 8.256C307.694 8.256 309.036 8.784 310.092 9.84C311.192 10.852 311.742 12.128 311.742 13.668C311.742 15.208 311.192 16.506 310.092 17.562C309.036 18.574 307.694 19.08 306.066 19.08ZM310.62 23.436V60H301.38V23.436H310.62ZM315.373 41.586C315.373 37.89 316.099 34.612 317.551 31.752C319.047 28.892 321.049 26.692 323.557 25.152C326.109 23.612 328.947 22.842 332.071 22.842C334.799 22.842 337.175 23.392 339.199 24.492C341.267 25.592 342.917 26.978 344.149 28.65V23.436H353.455V60H344.149V54.654C342.961 56.37 341.311 57.8 339.199 58.944C337.131 60.044 334.733 60.594 332.005 60.594C328.925 60.594 326.109 59.802 323.557 58.218C321.049 56.634 319.047 54.412 317.551 51.552C316.099 48.648 315.373 45.326 315.373 41.586ZM344.149 41.718C344.149 39.474 343.709 37.56 342.829 35.976C341.949 34.348 340.761 33.116 339.265 32.28C337.769 31.4 336.163 30.96 334.447 30.96C332.731 30.96 331.147 31.378 329.695 32.214C328.243 33.05 327.055 34.282 326.131 35.91C325.251 37.494 324.811 39.386 324.811 41.586C324.811 43.786 325.251 45.722 326.131 47.394C327.055 49.022 328.243 50.276 329.695 51.156C331.191 52.036 332.775 52.476 334.447 52.476C336.163 52.476 337.769 52.058 339.265 51.222C340.761 50.342 341.949 49.11 342.829 47.526C343.709 45.898 344.149 43.962 344.149 41.718ZM374.472 60.594C371.48 60.594 368.796 60.066 366.42 59.01C364.044 57.91 362.152 56.436 360.744 54.588C359.38 52.74 358.632 50.694 358.5 48.45H367.806C367.982 49.858 368.664 51.024 369.852 51.948C371.084 52.872 372.602 53.334 374.406 53.334C376.166 53.334 377.53 52.982 378.498 52.278C379.51 51.574 380.016 50.672 380.016 49.572C380.016 48.384 379.4 47.504 378.168 46.932C376.98 46.316 375.066 45.656 372.426 44.952C369.698 44.292 367.454 43.61 365.694 42.906C363.978 42.202 362.482 41.124 361.206 39.672C359.974 38.22 359.358 36.262 359.358 33.798C359.358 31.774 359.93 29.926 361.074 28.254C362.262 26.582 363.934 25.262 366.09 24.294C368.29 23.326 370.864 22.842 373.812 22.842C378.168 22.842 381.644 23.942 384.24 26.142C386.836 28.298 388.266 31.224 388.53 34.92H379.686C379.554 33.468 378.938 32.324 377.838 31.488C376.782 30.608 375.352 30.168 373.548 30.168C371.876 30.168 370.578 30.476 369.654 31.092C368.774 31.708 368.334 32.566 368.334 33.666C368.334 34.898 368.95 35.844 370.182 36.504C371.414 37.12 373.328 37.758 375.924 38.418C378.564 39.078 380.742 39.76 382.458 40.464C384.174 41.168 385.648 42.268 386.88 43.764C388.156 45.216 388.816 47.152 388.86 49.572C388.86 51.684 388.266 53.576 387.078 55.248C385.934 56.92 384.262 58.24 382.062 59.208C379.906 60.132 377.376 60.594 374.472 60.594ZM403.685 28.716C404.873 27.044 406.501 25.658 408.569 24.558C410.681 23.414 413.079 22.842 415.763 22.842C418.887 22.842 421.703 23.612 424.211 25.152C426.763 26.692 428.765 28.892 430.217 31.752C431.713 34.568 432.461 37.846 432.461 41.586C432.461 45.326 431.713 48.648 430.217 51.552C428.765 54.412 426.763 56.634 424.211 58.218C421.703 59.802 418.887 60.594 415.763 60.594C413.079 60.594 410.703 60.044 408.635 58.944C406.611 57.844 404.961 56.458 403.685 54.786V77.424H394.445V23.436H403.685V28.716ZM423.023 41.586C423.023 39.386 422.561 37.494 421.637 35.91C420.757 34.282 419.569 33.05 418.073 32.214C416.621 31.378 415.037 30.96 413.321 30.96C411.649 30.96 410.065 31.4 408.569 32.28C407.117 33.116 405.929 34.348 405.005 35.976C404.125 37.604 403.685 39.518 403.685 41.718C403.685 43.918 404.125 45.832 405.005 47.46C405.929 49.088 407.117 50.342 408.569 51.222C410.065 52.058 411.649 52.476 413.321 52.476C415.037 52.476 416.621 52.036 418.073 51.156C419.569 50.276 420.757 49.022 421.637 47.394C422.561 45.766 423.023 43.83 423.023 41.586ZM471.165 40.926C471.165 42.246 471.077 43.434 470.901 44.49H444.171C444.391 47.13 445.315 49.198 446.943 50.694C448.571 52.19 450.573 52.938 452.949 52.938C456.381 52.938 458.823 51.464 460.275 48.516H470.241C469.185 52.036 467.161 54.94 464.169 57.228C461.177 59.472 457.503 60.594 453.147 60.594C449.627 60.594 446.459 59.824 443.643 58.284C440.871 56.7 438.693 54.478 437.109 51.618C435.569 48.758 434.799 45.458 434.799 41.718C434.799 37.934 435.569 34.612 437.109 31.752C438.649 28.892 440.805 26.692 443.577 25.152C446.349 23.612 449.539 22.842 453.147 22.842C456.623 22.842 459.725 23.59 462.453 25.086C465.225 26.582 467.359 28.716 468.855 31.488C470.395 34.216 471.165 37.362 471.165 40.926ZM461.595 38.286C461.551 35.91 460.693 34.018 459.021 32.61C457.349 31.158 455.303 30.432 452.883 30.432C450.595 30.432 448.659 31.136 447.075 32.544C445.535 33.908 444.589 35.822 444.237 38.286H461.595ZM509.899 40.926C509.899 42.246 509.811 43.434 509.635 44.49H482.905C483.125 47.13 484.049 49.198 485.677 50.694C487.305 52.19 489.307 52.938 491.683 52.938C495.115 52.938 497.557 51.464 499.009 48.516H508.975C507.919 52.036 505.895 54.94 502.903 57.228C499.911 59.472 496.237 60.594 491.881 60.594C488.361 60.594 485.193 59.824 482.377 58.284C479.605 56.7 477.427 54.478 475.843 51.618C474.303 48.758 473.533 45.458 473.533 41.718C473.533 37.934 474.303 34.612 475.843 31.752C477.383 28.892 479.539 26.692 482.311 25.152C485.083 23.612 488.273 22.842 491.881 22.842C495.357 22.842 498.459 23.59 501.187 25.086C503.959 26.582 506.093 28.716 507.589 31.488C509.129 34.216 509.899 37.362 509.899 40.926ZM500.329 38.286C500.285 35.91 499.427 34.018 497.755 32.61C496.083 31.158 494.037 30.432 491.617 30.432C489.329 30.432 487.393 31.136 485.809 32.544C484.269 33.908 483.323 35.822 482.971 38.286H500.329ZM512.268 41.718C512.268 37.934 513.038 34.634 514.578 31.818C516.118 28.958 518.252 26.758 520.98 25.218C523.708 23.634 526.832 22.842 530.352 22.842C534.884 22.842 538.624 23.986 541.572 26.274C544.564 28.518 546.566 31.686 547.578 35.778H537.612C537.084 34.194 536.182 32.962 534.906 32.082C533.674 31.158 532.134 30.696 530.286 30.696C527.646 30.696 525.556 31.664 524.016 33.6C522.476 35.492 521.706 38.198 521.706 41.718C521.706 45.194 522.476 47.9 524.016 49.836C525.556 51.728 527.646 52.674 530.286 52.674C534.026 52.674 536.468 51.002 537.612 47.658H547.578C546.566 51.618 544.564 54.764 541.572 57.096C538.58 59.428 534.84 60.594 530.352 60.594C526.832 60.594 523.708 59.824 520.98 58.284C518.252 56.7 516.118 54.5 514.578 51.684C513.038 48.824 512.268 45.502 512.268 41.718ZM572.939 22.908C575.711 22.908 578.175 23.524 580.331 24.756C582.487 25.944 584.159 27.726 585.347 30.102C586.579 32.434 587.195 35.25 587.195 38.55V60H577.955V39.804C577.955 36.9 577.229 34.678 575.777 33.138C574.325 31.554 572.345 30.762 569.837 30.762C567.285 30.762 565.261 31.554 563.765 33.138C562.313 34.678 561.587 36.9 561.587 39.804V60H552.347V11.16H561.587V27.99C562.775 26.406 564.359 25.174 566.339 24.294C568.319 23.37 570.519 22.908 572.939 22.908Z" fill="#13142F"/>
<defs>
<linearGradient id="paint0_linear_102_425" x1="63.3" y1="80.2199" x2="14.89" y2="24.8899" gradientUnits="userSpaceOnUse">
<stop stop-color="#0740A5"/>
<stop offset="0.49" stop-color="#00ABE9"/>
<stop offset="1" stop-color="#2AFFB4"/>
</linearGradient>
<linearGradient id="paint1_linear_102_425" x1="0" y1="36.95" x2="42.38" y2="36.95" gradientUnits="userSpaceOnUse">
<stop stop-color="white"/>
<stop offset="1" stop-color="white" stop-opacity="0"/>
</linearGradient>
<linearGradient id="paint2_linear_102_425" x1="38.33" y1="23.69" x2="51.62" y2="40.15" gradientUnits="userSpaceOnUse">
<stop stop-color="#0740A5"/>
<stop offset="1" stop-color="white"/>
</linearGradient>
<linearGradient id="paint3_linear_102_425" x1="119.65" y1="78.41" x2="28.3099" y2="-12.92" gradientUnits="userSpaceOnUse">
<stop stop-color="#0740A5"/>
<stop offset="0.49" stop-color="#00ABE9"/>
<stop offset="1" stop-color="#71FF6A"/>
</linearGradient>
<linearGradient id="paint4_linear_102_425" x1="102.19" y1="0.0699819" x2="60.6999" y2="78.85" gradientUnits="userSpaceOnUse">
<stop stop-color="#0740A5"/>
<stop offset="0.49" stop-color="#00ABE9"/>
<stop offset="1" stop-color="#2AFFB4"/>
</linearGradient>
<linearGradient id="paint5_linear_102_425" x1="84.63" y1="1.92" x2="65.15" y2="64.25" gradientUnits="userSpaceOnUse">
<stop stop-color="white"/>
<stop offset="1" stop-color="white" stop-opacity="0"/>
</linearGradient>
<linearGradient id="paint6_linear_102_425" x1="93.15" y1="21.84" x2="105.37" y2="40.17" gradientUnits="userSpaceOnUse">
<stop stop-color="#0740A5"/>
<stop offset="1" stop-color="white"/>
</linearGradient>
<clipPath id="clip0_102_425">
<rect width="132.81" height="73.9" fill="white"/>
</clipPath>
</defs>
</svg>
