<svg width="47" height="26" viewBox="0 0 47 26" fill="none" xmlns="http://www.w3.org/2000/svg">
<g clip-path="url(#clip0_4_2880)">
<path d="M26.7846 22.3305L26.3131 23.6463C26.0662 24.3341 25.613 24.9288 25.0154 25.3495C24.4178 25.7701 23.705 25.996 22.9743 25.9965H18.6539L17.3451 22.3269L14.0625 13.1795L10.3085 23.6498C10.062 24.3379 9.60892 24.9329 9.01126 25.3536C8.4136 25.7743 7.70056 26.0001 6.96969 26H0L8.33829 2.77945C8.62663 1.97086 9.15814 1.27131 9.85987 0.776821C10.5616 0.282329 11.3992 0.0171264 12.2576 0.0176093H16.3107C17.0321 0.0190984 17.7357 0.242331 18.326 0.657058C18.9163 1.07178 19.3648 1.65796 19.6108 2.33615L22.0736 9.16862L26.7846 22.3305Z" fill="url(#paint0_linear_4_2880)"/>
<g style="mix-blend-mode:overlay">
<path d="M14.9104 0H12.2612C11.402 0.000110024 10.5638 0.26544 9.86104 0.759753C9.15829 1.25407 8.62527 1.95326 8.33478 2.76184L0 25.9824H2.66333L11.0122 2.76184C11.3006 1.95748 11.8292 1.26117 12.5265 0.76718C13.2237 0.273189 14.0559 0.0053771 14.9104 0Z" fill="url(#paint1_linear_4_2880)"/>
</g>
<path style="mix-blend-mode:multiply" d="M26.7846 22.334L26.3131 23.6498C26.0661 24.3376 25.613 24.9323 25.0154 25.353C24.4178 25.7736 23.705 25.9995 22.9743 26H18.6538L17.345 22.3269L14.0625 13.1794L16.2896 6.96265C16.4744 6.44877 16.8133 6.00445 17.2601 5.69037C17.7069 5.37628 18.2397 5.20773 18.7858 5.20773C19.3319 5.20773 19.8647 5.37628 20.3115 5.69037C20.7582 6.00445 21.0971 6.44877 21.282 6.96265L22.0666 9.15453L26.7846 22.334Z" fill="url(#paint2_linear_4_2880)"/>
<path d="M46.7261 26.0035H37.2761L32.6777 13.1759L29.3916 22.3234L28.9202 23.6393C28.6732 24.327 28.22 24.9218 27.6225 25.3424C27.0249 25.763 26.3121 25.989 25.5813 25.9895H18.6257L19.9416 22.3164L24.6666 9.144L26.9605 2.75482C27.2504 1.94652 27.7827 1.24744 28.4849 0.753105C29.187 0.258773 30.0247 -0.00669413 30.8834 -0.00701904H34.9364C35.6579 -0.00552996 36.3614 0.217702 36.9517 0.632429C37.542 1.04716 37.9906 1.63333 38.2366 2.31152L46.7261 26.0035Z" fill="url(#paint3_linear_4_2880)"/>
<path d="M39.9007 6.96267C39.7166 6.44758 39.3777 6.00201 38.9305 5.68698C38.4834 5.37194 37.9497 5.20284 37.4027 5.20284C36.8557 5.20284 36.3221 5.37194 35.8749 5.68698C35.4277 6.00201 35.0889 6.44758 34.9048 6.96267L32.6777 13.1759L29.3916 22.3234L28.9202 23.6393C28.6732 24.327 28.22 24.9218 27.6225 25.3424C27.0249 25.763 26.3121 25.989 25.5813 25.9895H18.6257L19.9416 22.3164L24.6666 9.144L26.9605 2.75482C27.2504 1.94652 27.7827 1.24744 28.4849 0.753105C29.187 0.258773 30.0247 -0.00669413 30.8834 -0.00701904H34.9364C35.6579 -0.00552996 36.3614 0.217702 36.9517 0.632429C37.542 1.04716 37.9906 1.63333 38.2366 2.31152L39.9007 6.96267Z" fill="url(#paint4_linear_4_2880)"/>
<path style="mix-blend-mode:overlay" d="M27.0063 9.15453L29.3072 2.76184C29.5971 1.95354 30.1295 1.25446 30.8316 0.760124C31.5337 0.265792 32.3714 0.000324908 33.2301 0H30.8905C30.0318 0.000324908 29.1941 0.265792 28.492 0.760124C27.7898 1.25446 27.2574 1.95354 26.9676 2.76184L24.6737 9.15101L19.9486 22.3234L18.6328 25.9965H20.9725L22.2707 22.3269L27.0063 9.15453Z" fill="url(#paint5_linear_4_2880)"/>
<path style="mix-blend-mode:multiply" d="M46.7262 26H37.2761L32.6777 13.1759L34.9048 6.96265C35.0896 6.44877 35.4286 6.00445 35.8753 5.69037C36.3221 5.37628 36.8549 5.20773 37.401 5.20773C37.9471 5.20773 38.4799 5.37628 38.9267 5.69037C39.3734 6.00445 39.7124 6.44877 39.8972 6.96265L46.7262 26Z" fill="url(#paint6_linear_4_2880)"/>
</g>
<defs>
<linearGradient id="paint0_linear_4_2880" x1="22.2706" y1="28.2236" x2="5.2387" y2="8.75698" gradientUnits="userSpaceOnUse">
<stop stop-color="#0740A5"/>
<stop offset="0.49" stop-color="#00ABE9"/>
<stop offset="1" stop-color="#2AFFB4"/>
</linearGradient>
<linearGradient id="paint1_linear_4_2880" x1="0" y1="13" x2="14.9104" y2="13" gradientUnits="userSpaceOnUse">
<stop stop-color="white"/>
<stop offset="1" stop-color="white" stop-opacity="0"/>
</linearGradient>
<linearGradient id="paint2_linear_4_2880" x1="13.4855" y1="8.33478" x2="18.1613" y2="14.1258" gradientUnits="userSpaceOnUse">
<stop stop-color="#0740A5"/>
<stop offset="1" stop-color="white"/>
</linearGradient>
<linearGradient id="paint3_linear_4_2880" x1="42.0961" y1="27.5868" x2="9.96024" y2="-4.54558" gradientUnits="userSpaceOnUse">
<stop stop-color="#0740A5"/>
<stop offset="0.49" stop-color="#00ABE9"/>
<stop offset="1" stop-color="#71FF6A"/>
</linearGradient>
<linearGradient id="paint4_linear_4_2880" x1="35.9532" y1="0.0246459" x2="21.3559" y2="27.7416" gradientUnits="userSpaceOnUse">
<stop stop-color="#0740A5"/>
<stop offset="0.49" stop-color="#00ABE9"/>
<stop offset="1" stop-color="#2AFFB4"/>
</linearGradient>
<linearGradient id="paint5_linear_4_2880" x1="29.7752" y1="0.675508" x2="22.9216" y2="22.6049" gradientUnits="userSpaceOnUse">
<stop stop-color="white"/>
<stop offset="1" stop-color="white" stop-opacity="0"/>
</linearGradient>
<linearGradient id="paint6_linear_4_2880" x1="32.7727" y1="7.6839" x2="37.0721" y2="14.1329" gradientUnits="userSpaceOnUse">
<stop stop-color="#0740A5"/>
<stop offset="1" stop-color="white"/>
</linearGradient>
<clipPath id="clip0_4_2880">
<rect width="46.7261" height="26" fill="white"/>
</clipPath>
</defs>
</svg>
